# xmcd
#
# Track frame offsets: 
#        150
#        21937
#        43639
#        63485
#        80542
#        100542
#        119290
#        137245
#        158637
#        178090
#
# Disc length: 2629 seconds
#
# Revision: 0
# Processed by: cddbd v1.5.2PL0 Copyright (c) Steve Scherf et al.
# Submitted via: ExactAudioCopyFreeDBPlugin 1.0
#
DISCID=7e0a430a
DTITLE=Various Artist - Mua he ky niem
DYEAR=1995
DGENRE=Pop
TTITLE0=Luu Bich - Ngan nam van khong quen
TTITLE1=Anh Tu - Tha la quen di
TTITLE2=Lan Anh - Tinh hoang vang
TTITLE3=Luu Bich - Mua 
TTITLE4=Anh Tu - Mot minh trong chieu vang
TTITLE5=Luu Bich - Canh chim roi xa
TTITLE6=Lan Anh - Nhac khuc ai an
TTITLE7=Anh Tu - Tron doi yeu em
TTITLE8=Luu Bich - Bien vang
TTITLE9=Lan Anh - Nhat nang
EXTD=
EXTT0=
EXTT1=
EXTT2=
EXTT3=
EXTT4=
EXTT5=
EXTT6=
EXTT7=
EXTT8=
EXTT9=
PLAYORDER=
